<svg width="64" height="64" viewBox="0 0 64 64" fill="none" xmlns="http://www.w3.org/2000/svg">
<path fill-rule="evenodd" clip-rule="evenodd" d="M47.234 56.3361L48.1727 56.5963C49.3143 56.9047 49.9665 58.0682 49.6599 59.2108L49.6583 59.2168L49.012 61.5671C48.705 62.683 47.508 63.3571 46.3921 63.0502L46.39 63.0497L34.156 59.657C33.0362 59.3491 32.3587 58.178 32.6894 57.0306L33.3339 54.6869C33.6419 53.5666 34.8188 52.8957 35.939 53.2038L35.9412 53.2043L36.6668 53.4056L38.2525 47.4389C38.7696 45.4909 39.5749 43.7927 41.3671 42.8785C43.0286 42.0262 45.9786 40.8479 48.4487 39.1291C48.4884 39.1014 48.5302 39.0765 48.5736 39.0549C50.1088 38.2873 51.9545 38.7487 52.8286 40.22L52.8421 40.2432C52.865 40.2843 52.8871 40.3256 52.9085 40.3669C52.9554 40.2391 52.9959 40.109 53.0298 39.9771L55.2771 31.502C56.1209 28.2928 57.633 27.0933 58.9113 26.8402C60.0502 26.6147 61.1494 27.0736 61.8966 27.8608C62.6523 28.6572 63.0171 29.771 62.785 30.7566L62.7844 30.7596L59.039 46.4606C58.6352 48.1948 57.6231 49.5121 56.0811 50.4058L56.0791 50.407L47.4959 55.3538L47.234 56.3361ZM38.6092 53.9442L45.2916 55.7973L45.6561 54.43C45.6903 54.3018 45.7495 54.1816 45.8302 54.0763C45.911 53.971 46.0118 53.8827 46.1267 53.8165L55.071 48.6613C56.1128 48.0573 56.8042 47.1728 57.0765 46.0006L57.0779 45.9948L60.8235 30.2924C60.9075 29.9299 60.7123 29.5413 60.4344 29.2485C59.5633 28.3307 58.1025 28.6818 57.2262 32.0159L57.2257 32.0181L54.9787 40.4919C54.6082 41.9175 53.8222 42.9961 52.6249 43.8588L52.623 43.8602L51.8444 44.4184C51.8341 44.4258 51.8237 44.433 51.8132 44.44C50.355 45.4069 48.868 46.1673 47.2761 47.0749C47.0438 47.2071 46.7686 47.2417 46.5108 47.1711C46.253 47.1005 46.0338 46.9305 45.9013 46.6984C45.7691 46.4662 45.7344 46.1909 45.805 45.9331C45.8755 45.6754 46.0456 45.4561 46.2777 45.3237C47.8167 44.4464 49.2567 43.7132 50.6667 42.7815C51.2196 42.3398 51.3848 41.7809 51.0876 41.2362C50.7647 40.7094 50.0961 40.5785 49.5318 40.831C46.9926 42.5825 43.9886 43.7992 42.2867 44.6722L42.2842 44.6735C41.0219 45.3168 40.5649 46.5847 40.2007 47.9562L38.6092 53.9442ZM35.4045 55.1473L35.4028 55.1469C35.3764 55.1406 35.3485 55.1448 35.3251 55.1587C35.3017 55.1726 35.2846 55.1951 35.2775 55.2213L34.6312 57.5716L34.6267 57.5874C34.6109 57.6414 34.6378 57.6989 34.6904 57.7134L34.6926 57.7139L46.9285 61.1071C46.9872 61.1222 47.0522 61.0913 47.0684 61.0326L47.7143 58.6836C47.7282 58.6239 47.7061 58.5581 47.6468 58.5422L47.6386 58.54L35.4045 55.1473ZM35.8334 56.3643C36.0831 56.0265 36.5679 55.9529 36.9057 56.2027C37.2288 56.4524 37.3022 56.9372 37.0526 57.275C36.8029 57.6128 36.3328 57.6716 35.995 57.4219C35.6571 57.1722 35.5837 56.7021 35.8334 56.3643ZM16.7502 56.3361L16.4883 55.3538L7.90516 50.407L7.89876 50.4033C6.37732 49.5114 5.36624 48.1974 4.94648 46.4661C4.94608 46.4646 4.94575 46.4631 4.94547 46.4616L1.2144 30.7588L1.2139 30.7566C0.981992 29.7713 1.34529 28.6579 2.0986 27.8619C2.84439 27.0739 3.94218 26.6146 5.08138 26.8402C6.35837 27.0932 7.87128 28.2925 8.72172 31.5015L8.7221 31.5029L10.9548 39.9787L10.9558 39.9825C10.9916 40.1203 11.0336 40.253 11.0818 40.381C11.1074 40.3318 11.1343 40.2825 11.1625 40.2334L11.1648 40.2294C12.0212 38.752 13.8954 38.2865 15.4157 39.0574C15.4564 39.0781 15.4958 39.1015 15.5333 39.1275C18.0179 40.8465 20.9536 42.0249 22.6293 42.8772L22.6334 42.8794C24.4086 43.7928 25.2295 45.4914 25.7464 47.4387L27.3312 53.4017L28.0431 53.2043L28.0452 53.2038C29.155 52.8986 30.3257 53.5547 30.6587 54.6645L30.6651 54.6869L31.3113 57.0372C31.3119 57.0392 31.3125 57.0412 31.313 57.0432C31.6194 58.1853 30.9425 59.3506 29.8304 59.6564L17.5943 63.0497L17.5921 63.0502C16.4733 63.3579 15.2978 62.6889 14.9881 61.571L14.3275 59.2225L14.3244 59.2108C14.0179 58.0687 14.6948 56.9034 15.8069 56.5976L16.7502 56.3361ZM25.3887 53.9404L23.7982 47.9562C23.4339 46.5842 22.9629 45.3169 21.7131 44.6727C19.995 43.7991 17.0046 42.5821 14.4507 40.8296C13.8949 40.5767 13.2192 40.7073 12.909 41.24C12.6005 41.7814 12.7753 42.3398 13.3191 42.7821C14.7429 43.7132 16.1826 44.4465 17.7213 45.3237C17.9534 45.4561 18.1234 45.6754 18.194 45.9331C18.2645 46.1909 18.2299 46.4662 18.0976 46.6984C17.9651 46.9305 17.7459 47.1005 17.4881 47.1711C17.2304 47.2417 16.9551 47.2071 16.7229 47.0749C15.1325 46.1682 13.6468 45.4087 12.1753 44.4427L12.174 44.4418C12.1599 44.4326 12.146 44.4229 12.1324 44.413L12.1313 44.4121L11.3708 43.8564C10.1757 42.9943 9.37528 41.9153 9.00533 40.4913L6.77311 32.0174C5.88904 28.6822 4.43172 28.3293 3.5627 29.2475C3.28499 29.541 3.0906 29.9312 3.17594 30.2946L6.90588 45.9929C7.19125 47.1682 7.88295 48.0566 8.91548 48.6627L17.8575 53.8165C17.9725 53.8827 18.0732 53.971 18.154 54.0763C18.2348 54.1816 18.2939 54.3018 18.3281 54.43L18.6927 55.7973L25.3887 53.9404ZM28.5799 55.1473L16.3456 58.54L16.3435 58.5405C16.2835 58.5571 16.2554 58.6236 16.2705 58.6854L16.929 61.027L16.9305 61.0326C16.9378 61.0592 16.9551 61.0818 16.9789 61.0957C17.0026 61.1095 17.0309 61.1135 17.0575 61.1067L29.2917 57.7139L29.2938 57.7134C29.3545 57.6967 29.3826 57.6289 29.3664 57.5666C29.3664 57.5666 28.726 55.2379 28.7254 55.2361C28.7034 55.1745 28.6428 55.1302 28.5799 55.1473ZM28.1509 56.3643C28.4006 56.7021 28.3419 57.1722 28.004 57.4219C27.6661 57.6716 27.196 57.6128 26.9464 57.275C26.682 56.9372 26.7554 56.4524 27.0932 56.2027C27.4311 55.9529 27.9011 56.0265 28.1509 56.3643ZM31.9994 44.7026C25.8917 44.7026 20.9082 39.719 20.9082 33.6114C20.9082 27.5037 25.8917 22.5201 31.9994 22.5201C38.1071 22.5201 43.0906 27.5037 43.0906 33.6114C43.0906 39.719 38.1071 44.7026 31.9994 44.7026ZM31.9994 42.6948C37.0014 42.6948 41.0828 38.6134 41.0828 33.6114C41.0828 28.6094 37.0014 24.5279 31.9994 24.5279C26.9974 24.5279 22.916 28.6094 22.916 33.6114C22.916 38.6134 26.9974 42.6948 31.9994 42.6948ZM30.9955 27.6758V27.1115C30.9955 26.5575 31.4454 26.1076 31.9994 26.1076C32.5534 26.1076 33.0033 26.5575 33.0033 27.1115V27.6647C34.2299 27.9297 35.3639 28.7115 35.9481 30.1012C36.1629 30.6119 35.9225 31.201 35.4117 31.4157C34.901 31.6304 34.3119 31.3901 34.0972 30.8792C33.5575 29.5955 32.119 29.3356 31.0862 29.7422C30.4943 29.9752 30.0172 30.4508 30.0507 31.146C30.0773 31.6883 30.4303 31.9965 30.8484 32.2009C31.2561 32.4003 31.7276 32.5116 32.1713 32.5848C34.0005 32.8839 36.0081 33.7185 36.2736 35.8933L36.2737 35.8946C36.5305 38.0211 34.8089 39.2492 33.0033 39.5741V40.1112C33.0033 40.6653 32.5534 41.1151 31.9994 41.1151C31.4454 41.1151 30.9955 40.6653 30.9955 40.1112V39.5595C29.4619 39.2507 28.1373 38.2475 27.7312 36.6163C27.6671 36.3579 27.7081 36.0846 27.8453 35.8565C27.9825 35.6283 28.2047 35.464 28.463 35.3995C28.7213 35.3353 28.9946 35.3763 29.2227 35.5135C29.4508 35.6507 29.6152 35.8728 29.6796 36.1311C29.9498 37.2165 31.0492 37.6779 32.1095 37.6529C32.6813 37.6395 33.3182 37.4978 33.7871 37.1746C34.1145 36.9488 34.3375 36.6113 34.2804 36.136C34.2051 35.5212 33.7841 35.1847 33.2971 34.9638C32.8435 34.758 32.3287 34.6451 31.8471 34.5663L31.8461 34.566C30.0566 34.2714 28.1491 33.3712 28.0452 31.2437L28.0451 31.2432C27.9665 29.6161 28.9653 28.4193 30.3507 27.8739C30.5603 27.7916 30.7758 27.7254 30.9955 27.6758ZM49.783 24.2025C43.6753 24.2025 38.6918 19.2191 38.6918 13.1113C38.6918 7.00359 43.6753 2.02 49.783 2.02C55.8907 2.02 60.8742 7.00359 60.8742 13.1113C60.8742 19.2191 55.8907 24.2025 49.783 24.2025ZM49.783 22.1947C54.785 22.1947 58.8664 18.1134 58.8664 13.1113C58.8664 8.10929 54.785 4.02785 49.783 4.02785C44.781 4.02785 40.6996 8.10929 40.6996 13.1113C40.6996 18.1134 44.781 22.1947 49.783 22.1947ZM49.1449 19.9749C47.7777 19.1707 45.7263 17.7382 44.288 16.0629C43.214 14.8118 42.4923 13.4168 42.4672 12.0438C42.429 9.92952 43.6297 8.4131 45.2553 7.85944C46.5876 7.40554 48.2578 7.59654 49.782 8.76673C51.3059 7.59804 52.9763 7.40692 54.3091 7.86032C55.9357 8.4136 57.137 9.92927 57.0988 12.0437C57.0737 13.4166 56.352 14.8118 55.278 16.0629C53.8397 17.7382 51.7883 19.1707 50.4216 19.9746C50.0182 20.2148 49.5485 20.215 49.1449 19.9749ZM49.783 18.015C50.9849 17.2712 52.5955 16.105 53.7545 14.755C54.4984 13.8886 55.0738 12.958 55.0912 12.0073C55.1114 10.8879 54.5235 10.0541 53.6624 9.76112C52.7196 9.44049 51.5337 9.7566 50.4973 10.8101C50.4039 10.9051 50.2924 10.9805 50.1695 11.032C50.0466 11.0835 49.9147 11.1099 49.7815 11.1099C49.6482 11.1099 49.5163 11.0834 49.3934 11.0318C49.2705 10.9803 49.1591 10.9048 49.0657 10.8097C48.0296 9.7556 46.8446 9.43911 45.9027 9.75999C45.0419 10.0533 44.4546 10.8876 44.4748 12.0073C44.4922 12.958 45.0676 13.8886 45.8115 14.755C46.9705 16.105 48.5811 17.2712 49.783 18.015ZM14.2174 24.2025C8.10695 24.2025 3.12461 19.2199 3.12461 13.113C3.12461 7.00247 8.10695 2.02 14.2174 2.02C20.3244 2.02 25.307 7.00234 25.307 13.113C25.307 19.2199 20.3246 24.2025 14.2174 24.2025ZM14.2174 22.1947C19.2187 22.1947 23.2992 18.1142 23.2992 13.113C23.2992 8.10854 19.2189 4.02785 14.2174 4.02785C9.21302 4.02785 5.13245 8.10854 5.13245 13.113C5.13245 18.1144 9.21302 22.1947 14.2174 22.1947ZM12.516 6.85702H15.9156C16.1818 6.85702 16.4372 6.96279 16.6255 7.15106C16.8137 7.33934 16.9195 7.59469 16.9195 7.86094V10.4076H19.4661C19.7323 10.4076 19.9877 10.5134 20.176 10.7017C20.3642 10.89 20.47 11.1453 20.47 11.4116V14.811C20.47 15.0772 20.3642 15.3326 20.176 15.5208C19.9877 15.7091 19.7323 15.8149 19.4661 15.8149H16.9195V18.3616C16.9195 18.6278 16.8137 18.8832 16.6255 19.0715C16.4372 19.2597 16.1818 19.3655 15.9156 19.3655H12.516C12.2498 19.3655 11.9944 19.2597 11.8062 19.0715C11.6179 18.8832 11.5121 18.6278 11.5121 18.3616V15.8149H8.96555C8.6993 15.8149 8.44394 15.7091 8.25567 15.5208C8.0674 15.3326 7.96163 15.0772 7.96163 14.811V11.4116C7.96163 11.1453 8.0674 10.89 8.25567 10.7017C8.44394 10.5134 8.6993 10.4076 8.96555 10.4076H11.5121V7.86094C11.5121 7.59469 11.6179 7.33934 11.8062 7.15106C11.9944 6.96279 12.2498 6.85702 12.516 6.85702ZM13.52 8.86487V11.4116C13.52 11.6778 13.4142 11.9332 13.2259 12.1214C13.0377 12.3097 12.7823 12.4155 12.516 12.4155H9.96947V13.807H12.516C12.7823 13.807 13.0377 13.9128 13.2259 14.1011C13.4142 14.2894 13.52 14.5447 13.52 14.811V17.3577H14.9117V14.811C14.9117 14.5447 15.0174 14.2894 15.2057 14.1011C15.394 13.9128 15.6493 13.807 15.9156 13.807H18.4622V12.4155H15.9156C15.6493 12.4155 15.394 12.3097 15.2057 12.1214C15.0174 11.9332 14.9117 11.6778 14.9117 11.4116V8.86487H13.52ZM30.9955 1.88234C30.9955 1.3283 31.4454 0.878418 31.9994 0.878418C32.5534 0.878418 33.0033 1.3283 33.0033 1.88234V4.90013C33.0033 5.45429 32.5534 5.90405 31.9994 5.90405C31.4454 5.90405 30.9955 5.45429 30.9955 4.90013V1.88234ZM37.0105 5.88949C37.5646 5.88949 38.0144 6.33938 38.0144 6.89341C38.0144 7.44758 37.5646 7.89734 37.0105 7.89734H33.9927C33.4387 7.89734 32.9888 7.44758 32.9888 6.89341C32.9888 6.33938 33.4387 5.88949 33.9927 5.88949H37.0105ZM33.0033 11.9046C33.0033 12.4587 32.5534 12.9085 31.9994 12.9085C31.4454 12.9085 30.9955 12.4587 30.9955 11.9046V8.8867C30.9955 8.33266 31.4454 7.88278 31.9994 7.88278C32.5534 7.88278 33.0033 8.33266 33.0033 8.8867V11.9046ZM26.9883 7.89734C26.4342 7.89734 25.9844 7.44758 25.9844 6.89341C25.9844 6.33938 26.4342 5.88949 26.9883 5.88949H30.0061C30.5602 5.88949 31.01 6.33938 31.01 6.89341C31.01 7.44758 30.5602 7.89734 30.0061 7.89734H26.9883Z" fill="#1F7A42"/>
</svg>
