<svg width="64" height="64" viewBox="0 0 64 64" fill="none" xmlns="http://www.w3.org/2000/svg">
<path d="M55.3656 45.21L46.3646 50.302C46.2566 48.017 45.3186 46.278 41.3366 45.979H32.0986L24.9326 43.709C24.8349 43.6781 24.733 43.6626 24.6306 43.663H15.7466V41.969C15.7466 41.7038 15.6412 41.4494 15.4537 41.2619C15.2662 41.0744 15.0118 40.969 14.7466 40.969H2.18359C1.91838 40.969 1.66402 41.0744 1.47649 41.2619C1.28895 41.4494 1.18359 41.7038 1.18359 41.969V61.23C1.18359 61.4952 1.28895 61.7496 1.47649 61.9371C1.66402 62.1246 1.91838 62.23 2.18359 62.23H14.7466C15.0118 62.23 15.2662 62.1246 15.4537 61.9371C15.6412 61.7496 15.7466 61.4952 15.7466 61.23V59.94C16.8236 59.236 18.1806 58.599 19.2706 58.956L32.5406 62.39C34.2927 62.9558 36.1505 63.1166 37.9738 62.8603C39.7971 62.6039 41.5384 61.9371 43.0666 60.91L62.3286 49.455C62.5531 49.3217 62.7166 49.1058 62.784 48.8535C62.8515 48.6012 62.8176 48.3326 62.6896 48.105C60.1626 43.61 57.0376 44.349 55.3656 45.21ZM13.7466 60.23H3.18359V42.97H13.7466V60.23ZM42.0276 59.202C40.7368 60.0857 39.2596 60.6599 37.7109 60.8799C36.1621 61.1 34.5835 60.9601 33.0976 60.471L19.8356 57.038C19.1494 56.8568 18.4337 56.8156 17.7312 56.9168C17.0287 57.018 16.3538 57.2595 15.7466 57.627V45.663H24.4766L31.6416 47.933C31.7393 47.9639 31.8412 47.9794 31.9436 47.979L41.2616 47.976C44.0406 48.186 44.4516 48.965 44.3816 51.036H32.2816C32.0164 51.036 31.762 51.1413 31.5745 51.3289C31.3869 51.5164 31.2816 51.7708 31.2816 52.036C31.2816 52.3012 31.3869 52.5556 31.5745 52.7431C31.762 52.9306 32.0164 53.036 32.2816 53.036H45.3286C45.4974 53.0138 45.6627 52.9705 45.8206 52.907L56.3136 46.97C57.4336 46.395 58.8826 46.065 60.4276 48.259L42.0276 59.202Z" fill="#1F7A42"/>
<path d="M45.1166 26.701C45.1997 26.8673 45.3274 27.0071 45.4855 27.1048C45.6436 27.2024 45.8258 27.2541 46.0116 27.254H49.9286L49.9126 45.633C49.9123 45.7644 49.9379 45.8944 49.9879 46.0159C50.038 46.1373 50.1114 46.2477 50.2041 46.3407C50.2967 46.4338 50.4068 46.5077 50.5281 46.5582C50.6493 46.6087 50.7793 46.6348 50.9106 46.635H50.9126C51.1775 46.635 51.4315 46.53 51.619 46.3429C51.8065 46.1558 51.9121 45.9019 51.9126 45.637L51.9286 26.254C51.9286 25.9888 51.8232 25.7345 51.6357 25.5469C51.4482 25.3594 51.1938 25.254 50.9286 25.254H48.0136L53.9136 17.398L59.8146 25.254H56.8966C56.6314 25.254 56.377 25.3594 56.1895 25.5469C56.0019 25.7345 55.8966 25.9888 55.8966 26.254V41.78C55.8966 42.0453 56.0019 42.2996 56.1895 42.4871C56.377 42.6747 56.6314 42.78 56.8966 42.78C57.1618 42.78 57.4162 42.6747 57.6037 42.4871C57.7912 42.2996 57.8966 42.0453 57.8966 41.78V27.254H61.8166C62.0023 27.254 62.1844 27.2023 62.3423 27.1047C62.5003 27.0071 62.628 26.8674 62.711 26.7013C62.7941 26.5351 62.8292 26.3492 62.8126 26.1642C62.7959 25.9793 62.728 25.8026 62.6166 25.654L54.7136 15.133C54.6163 15.0151 54.4941 14.9201 54.3558 14.8549C54.2175 14.7897 54.0665 14.7559 53.9136 14.7559C53.7607 14.7559 53.6097 14.7897 53.4714 14.8549C53.3331 14.9201 53.2109 15.0151 53.1136 15.133L45.2116 25.653C45.1 25.8017 45.0321 25.9785 45.0153 26.1635C44.9985 26.3486 45.0336 26.5348 45.1166 26.701ZM14.1476 38.93H18.6646C18.9298 38.93 19.1842 38.8247 19.3717 38.6371C19.5592 38.4496 19.6646 38.1953 19.6646 37.93V34.083H21.0176C21.9262 36.6299 23.7199 38.7653 26.0717 40.0998C28.4236 41.4344 31.1767 41.879 33.8291 41.3528C36.4815 40.8265 38.8563 39.3644 40.5205 37.2331C42.1846 35.1018 43.0273 32.4433 42.8946 29.7425C42.762 27.0417 41.663 24.4785 39.798 22.5205C37.9331 20.5624 35.4264 19.34 32.7353 19.0761C30.0441 18.8123 27.3477 19.5245 25.138 21.083C22.9282 22.6415 21.3523 24.9424 20.6976 27.566H19.6646V23.72C19.6646 23.4548 19.5592 23.2005 19.3717 23.0129C19.1842 22.8254 18.9298 22.72 18.6646 22.72H14.1476C13.8824 22.72 13.628 22.8254 13.4405 23.0129C13.253 23.2005 13.1476 23.4548 13.1476 23.72V27.566H9.30159C9.03638 27.566 8.78202 27.6714 8.59449 27.8589C8.40695 28.0465 8.30159 28.3008 8.30159 28.566V33.083C8.30159 33.3483 8.40695 33.6026 8.59449 33.7901C8.78202 33.9777 9.03638 34.083 9.30159 34.083H13.1476V37.929C13.1476 38.1943 13.253 38.4486 13.4405 38.6361C13.628 38.8237 13.8824 38.93 14.1476 38.93ZM31.6256 21.022C33.2931 21.0211 34.9299 21.47 36.3636 22.3214C37.7973 23.1728 38.9748 24.3952 39.772 25.8597C40.5692 27.3243 40.9565 28.9768 40.8932 30.643C40.8299 32.3093 40.3182 33.9276 39.4122 35.3274C38.5062 36.7273 37.2393 37.8568 35.7451 38.5969C34.2509 39.337 32.5847 39.6604 30.9221 39.5329C29.2595 39.4054 27.6622 38.8318 26.2983 37.8724C24.9344 36.9131 23.8546 35.6037 23.1726 34.082H23.5106C23.7758 34.082 24.0302 33.9767 24.2177 33.7891C24.4052 33.6016 24.5106 33.3473 24.5106 33.082V28.566C24.5106 28.3008 24.4052 28.0465 24.2177 27.8589C24.0302 27.6714 23.7758 27.566 23.5106 27.566H22.7696C23.3508 25.671 24.5249 24.0125 26.1191 22.8345C27.7133 21.6565 29.6434 21.0212 31.6256 21.022ZM10.3006 32.082V29.566H14.1466C14.4118 29.566 14.6662 29.4607 14.8537 29.2731C15.0412 29.0856 15.1466 28.8313 15.1466 28.566V24.72H17.6636V28.566C17.6636 28.8313 17.7689 29.0856 17.9565 29.2731C18.144 29.4607 18.3984 29.566 18.6636 29.566H22.5096V32.083H18.6636C18.3984 32.083 18.144 32.1884 17.9565 32.3759C17.7689 32.5635 17.6636 32.8178 17.6636 33.083V36.929H15.1466V33.083C15.1466 32.8178 15.0412 32.5635 14.8537 32.3759C14.6662 32.1884 14.4118 32.083 14.1466 32.083L10.3006 32.082ZM2.18359 17.811H5.34559V20.972C5.34559 21.2373 5.45095 21.4916 5.63849 21.6791C5.82602 21.8667 6.08038 21.972 6.34559 21.972H10.2236C10.4888 21.972 10.7432 21.8667 10.9307 21.6791C11.1182 21.4916 11.2236 21.2373 11.2236 20.972V17.812H14.3836C14.6488 17.812 14.9032 17.7067 15.0907 17.5191C15.2782 17.3316 15.3836 17.0773 15.3836 16.812V12.932C15.3836 12.6668 15.2782 12.4125 15.0907 12.2249C14.9032 12.0374 14.6488 11.932 14.3836 11.932H11.2236V8.77204C11.2236 8.50682 11.1182 8.25247 10.9307 8.06493C10.7432 7.8774 10.4888 7.77204 10.2236 7.77204H6.34559C6.08038 7.77204 5.82602 7.8774 5.63849 8.06493C5.45095 8.25247 5.34559 8.50682 5.34559 8.77204V11.932H2.18359C1.91838 11.932 1.66402 12.0374 1.47649 12.2249C1.28895 12.4125 1.18359 12.6668 1.18359 12.932V16.812C1.18359 17.0773 1.28895 17.3316 1.47649 17.5191C1.66402 17.7067 1.91838 17.811 2.18359 17.811ZM3.18359 13.932H6.34559C6.61081 13.932 6.86516 13.8267 7.0527 13.6391C7.24024 13.4516 7.34559 13.1973 7.34559 12.932V9.77204H9.22359V12.932C9.22359 13.1973 9.32895 13.4516 9.51649 13.6391C9.70402 13.8267 9.95838 13.932 10.2236 13.932H13.3836V15.812H10.2236C9.95838 15.812 9.70402 15.9174 9.51649 16.1049C9.32895 16.2925 9.22359 16.5468 9.22359 16.812V19.972H7.34559V16.812C7.34559 16.5468 7.24024 16.2925 7.0527 16.1049C6.86516 15.9174 6.61081 15.812 6.34559 15.812H3.18359V13.932ZM19.5706 17.068H21.0546V18.553C21.0546 18.8183 21.16 19.0726 21.3475 19.2601C21.535 19.4477 21.7894 19.553 22.0546 19.553C22.3198 19.553 22.5742 19.4477 22.7617 19.2601C22.9492 19.0726 23.0546 18.8183 23.0546 18.553V17.068H24.5386C24.8038 17.068 25.0582 16.9627 25.2457 16.7751C25.4332 16.5876 25.5386 16.3333 25.5386 16.068C25.5386 15.8028 25.4332 15.5485 25.2457 15.3609C25.0582 15.1734 24.8038 15.068 24.5386 15.068H23.0546V13.585C23.0546 13.3198 22.9492 13.0655 22.7617 12.8779C22.5742 12.6904 22.3198 12.585 22.0546 12.585C21.7894 12.585 21.535 12.6904 21.3475 12.8779C21.16 13.0655 21.0546 13.3198 21.0546 13.585V15.068H19.5696C19.3044 15.068 19.05 15.1734 18.8625 15.3609C18.6749 15.5485 18.5696 15.8028 18.5696 16.068C18.5696 16.3333 18.6749 16.5876 18.8625 16.7751C19.05 16.9627 19.3054 17.068 19.5706 17.068ZM27.6556 13.936H31.7766L31.7876 16.399C31.7887 16.6636 31.8945 16.9169 32.0819 17.1036C32.2693 17.2902 32.5231 17.395 32.7876 17.395H32.7916C32.9229 17.3945 33.0529 17.3681 33.174 17.3174C33.2951 17.2667 33.405 17.1926 33.4975 17.0993C33.59 17.0061 33.6632 16.8956 33.713 16.774C33.7628 16.6525 33.7881 16.5224 33.7876 16.391L33.7726 12.932C33.7715 12.6675 33.6657 12.4142 33.4783 12.2275C33.2909 12.0408 33.0371 11.936 32.7726 11.936H29.6576L35.8796 3.65404L42.1016 11.936H38.9826C38.7194 11.936 38.4669 12.0397 38.2797 12.2247C38.0925 12.4096 37.9858 12.6609 37.9826 12.924L37.9166 18.334C37.9134 18.5991 38.0156 18.8546 38.2006 19.0443C38.3857 19.2341 38.6385 19.3426 38.9036 19.346H38.9166C39.1796 19.3461 39.432 19.2425 39.6191 19.0578C39.8063 18.873 39.9132 18.622 39.9166 18.359L39.9716 13.936H44.1036C44.2893 13.936 44.4714 13.8843 44.6293 13.7867C44.7873 13.6891 44.915 13.5494 44.998 13.3833C45.0811 13.2171 45.1162 13.0312 45.0996 12.8462C45.0829 12.6613 45.015 12.4846 44.9036 12.336L36.6806 1.38804C36.5833 1.27008 36.4611 1.17509 36.3228 1.10989C36.1845 1.04468 36.0335 1.01086 35.8806 1.01086C35.7277 1.01086 35.5767 1.04468 35.4384 1.10989C35.3001 1.17509 35.1779 1.27008 35.0806 1.38804L26.8566 12.336C26.7452 12.4846 26.6773 12.6613 26.6606 12.8462C26.644 13.0312 26.6791 13.2171 26.7622 13.3833C26.8452 13.5494 26.9729 13.6891 27.1309 13.7867C27.2888 13.8843 27.4699 13.936 27.6556 13.936Z" fill="#1F7A42"/>
<path d="M31.5883 31.29C33.4723 31.29 33.6403 31.527 33.6403 32.203C33.6403 33.536 30.4653 33.403 29.9683 32.757C29.8063 32.547 29.5674 32.4099 29.3043 32.3759C29.0412 32.342 28.7754 32.414 28.5653 32.576C28.3553 32.738 28.2182 32.9769 28.1843 33.24C28.1503 33.5031 28.2223 33.769 28.3843 33.979C28.9923 34.6371 29.82 35.05 30.7113 35.14V35.931C30.7113 36.1962 30.8167 36.4506 31.0042 36.6381C31.1918 36.8256 31.4461 36.931 31.7113 36.931C31.9766 36.931 32.2309 36.8256 32.4185 36.6381C32.606 36.4506 32.7113 36.1962 32.7113 35.931V35.144C34.4163 34.871 35.6403 33.839 35.6403 32.203C35.6403 29.291 32.8003 29.291 31.5883 29.291C29.7783 29.291 29.7783 28.888 29.7783 28.379C29.7783 27.031 32.8743 27.239 33.4133 27.779C33.591 27.9716 33.8371 28.0868 34.0987 28.0998C34.3604 28.1129 34.6167 28.0227 34.8126 27.8487C35.0084 27.6747 35.1282 27.4308 35.1461 27.1694C35.164 26.908 35.0787 26.6501 34.9083 26.451C34.302 25.8923 33.5314 25.5444 32.7113 25.459V24.651C32.7113 24.3858 32.606 24.1314 32.4185 23.9439C32.2309 23.7564 31.9766 23.651 31.7113 23.651C31.4461 23.651 31.1918 23.7564 31.0042 23.9439C30.8167 24.1314 30.7113 24.3858 30.7113 24.651V25.447C28.7083 25.751 27.7773 26.967 27.7773 28.379C27.7773 31.291 30.6453 31.291 31.5873 31.291L31.5883 31.29Z" fill="#1F7A42"/>
</svg>
