<svg width="64" height="64" viewBox="0 0 64 64" fill="none" xmlns="http://www.w3.org/2000/svg">
<path d="M59.1126 6.99281C58.2458 4.26674 57.071 2.31477 57.0213 2.23274C56.8286 1.9153 56.4319 1.75012 56.0727 1.83243C55.9797 1.85371 53.7612 2.37149 51.2021 3.64968C47.7473 5.3745 45.3339 7.67718 44.2221 10.3078C43.2967 12.4984 43.1638 15.1765 43.8204 18.1351C42.4218 16.5732 40.8485 15.2069 39.1336 14.0566C38.61 13.0221 37.2253 10.4751 35.0606 7.81312C34.3476 6.93675 32.9761 8.03653 33.6965 8.92162C35.1551 10.7157 36.2531 12.4801 36.9396 13.6923L28.9332 12.1314L21.3263 1.75565C22.0649 1.76587 22.8061 1.83721 23.5437 1.98196C25.8819 2.43965 28.1916 3.63065 30.4097 5.52103C31.2788 6.26184 32.4075 4.91353 31.5497 4.18284C29.0995 2.09474 26.5195 0.773428 23.8813 0.256678C19.854 -0.531386 15.1571 0.503241 10.2967 3.24974C6.67418 5.29687 4.25168 7.54537 4.15052 7.63987C3.82643 7.94268 3.77487 8.49281 4.04618 8.84653C4.40149 9.57534 5.74765 12.2044 7.98837 15.0348C9.30931 16.7035 10.7024 18.1318 12.1435 19.3056C11.7319 19.6499 11.3338 20.01 10.95 20.3851C8.89043 22.3997 7.31346 24.776 6.27828 27.3739C5.36309 29.6694 4.8709 32.1387 4.84343 34.6839C4.79805 38.8458 6.00396 42.8598 8.33159 46.2928C10.6054 49.6458 13.7841 52.2203 17.5238 53.7374C18.5705 54.1612 19.2323 52.5333 18.1849 52.1085C16.8401 51.5625 15.5641 50.8606 14.3829 50.0172C14.5331 49.1844 14.8813 46.1873 12.8906 43.0847C12.6118 42.6507 13.445 40.9465 13.9423 39.9283C14.4557 38.8792 14.9857 37.7945 15.2333 36.7731C15.4962 35.688 15.2003 34.7772 14.3781 34.1382C13.7746 33.6691 12.9847 33.4263 12.2885 33.212C11.8362 33.0729 11.3235 32.9155 11.1404 32.7627C10.7633 32.4467 10.1472 31.2789 9.65215 30.341C9.10278 29.3005 8.57993 28.3104 8.04593 27.7006C9.24753 24.847 11.1775 22.3221 13.5944 20.3903C15.8023 21.8943 18.3223 22.9321 21.0007 23.1424C17.8945 25.549 16.8896 28.6227 18.3259 31.5751C20.0031 35.0226 23.4554 34.4718 26.5012 33.9866C27.0281 33.9024 27.5734 33.8156 28.0956 33.7503C28.2915 33.7259 28.3506 33.7794 28.3901 33.8141C29.0569 34.4074 29.0371 37.2407 29.0229 39.3099C29.0035 42.1718 28.9852 44.8752 30.0512 46.2631C30.595 46.9707 31.3608 47.3324 32.2584 47.3324C32.7963 47.3324 33.3808 47.2028 33.9939 46.9398C36.6449 45.8046 39.4006 42.3879 38.9802 39.6845C38.6129 37.321 38.3697 35.7595 38.9429 34.5008C39.4727 33.3358 40.7537 32.2573 43.2766 30.8811C43.5843 32.2689 43.7315 33.6876 43.7153 35.109C43.6615 40.0653 41.6803 44.7042 38.1372 48.1703C34.1774 52.044 28.612 53.9572 23.1068 53.3504C21.9851 53.2288 21.7913 54.9741 22.9145 55.0979C28.9405 55.7616 35.0331 53.6668 39.3661 49.4272C43.2455 45.6322 45.4142 40.5542 45.473 35.1277C45.5515 27.9327 41.8597 21.5585 36.2399 17.8865C37.4011 17.0585 38.2661 16.3425 38.7458 15.9269C40.7948 17.3969 42.6122 19.2078 44.1243 21.3175C47.7542 26.3833 49.1938 32.5587 48.1787 38.7074C46.0821 51.4 34.0511 60.0216 21.3564 57.9243C15.2073 56.9088 9.82212 53.5603 6.19231 48.4944C2.56202 43.4291 1.12249 37.2528 2.13799 31.1045C2.32033 29.9982 0.587082 29.7078 0.403988 30.8182C-0.688482 37.4301 0.860269 44.0713 4.76299 49.5187C8.66637 54.9654 14.4581 58.5667 21.07 59.6591C22.439 59.8855 23.8242 59.9996 25.2119 60C30.4084 60 35.4635 58.3866 39.7712 55.2997C45.2194 51.3963 48.8211 45.6058 49.9128 38.9937C50.7129 34.1487 50.0937 29.2881 48.1703 24.8928C49.0581 24.631 50.5686 24.1227 52.2231 23.2965C55.6774 21.5717 58.091 19.269 59.2025 16.6384C60.315 14.0072 60.2838 10.6718 59.1126 6.99281ZM8.09731 31.1613C8.7514 32.4012 9.36987 33.5731 10.0126 34.1107C10.4678 34.4913 11.1013 34.686 11.7718 34.8923C13.4898 35.4203 13.6893 35.6796 13.5246 36.3589C13.3224 37.1942 12.8346 38.1917 12.3633 39.156C11.4554 41.0135 10.5982 42.7669 11.4108 44.0339C12.3052 45.4229 12.7681 47.0458 12.7408 48.6976C7.50556 43.9768 5.37377 36.5204 7.32396 29.7432C7.58243 30.1864 7.85403 30.7014 8.09731 31.1613ZM50.6235 13.8881L48.1256 7.83468C49.3411 6.69787 50.7514 5.8425 51.9525 5.24006C52.9757 4.72659 53.9491 4.34287 54.7298 4.07071L50.6235 13.8881ZM56.3503 4.75218C56.6993 5.50218 57.104 6.4694 57.4497 7.56253C57.8287 8.76225 58.1766 10.249 58.2458 11.8L52.392 14.215L56.3503 4.75218ZM45.8412 10.9922C46.1004 10.3791 46.4356 9.81075 46.8226 9.28594L49.6662 16.1763L47.1145 22.2781C46.7559 21.5175 46.3337 20.5184 45.9755 19.3836C45.2567 17.1113 44.6502 13.8101 45.8412 10.9922ZM51.4724 21.706C50.4876 22.2005 49.548 22.5747 48.7826 22.8446L51.4307 16.5139L58.1711 13.7325C58.0733 14.4877 57.887 15.2363 57.5833 15.954C56.3928 18.7719 53.603 20.6378 51.4724 21.706ZM19.7779 21.2058C19.4687 21.1448 19.1621 21.0715 18.8587 20.9861L28.5868 13.8552L36.5969 15.4163C33.6789 17.7155 26.5778 22.5381 19.7779 21.2058ZM10.8874 15.7064C8.8069 13.4641 7.28206 11.0665 6.40643 9.53137L16.5999 11.5189L10.8874 15.7064ZM12.6877 3.97921L16.9526 9.7965L6.69312 7.79662C7.98481 6.77672 10.1169 5.24568 12.6877 3.97921ZM19.4955 10.2923L14.325 3.23952C15.8729 2.60343 17.5345 2.1028 19.2377 1.88015L26.3906 11.636L19.4955 10.2923ZM18.9484 11.9766L26.2386 13.3974L16.8823 20.2555C15.1179 19.4407 13.5299 18.2692 12.1406 16.9669L18.9484 11.9766ZM42.799 29.1409C39.6302 30.8291 38.0786 32.1551 37.3425 33.7727C36.5519 35.5097 36.8416 37.374 37.2425 39.9544C37.4794 41.476 35.6711 44.3094 33.3017 45.3241C32.425 45.6995 31.8006 45.6552 31.445 45.1919C30.7466 44.283 30.7657 41.5319 30.7807 39.322C30.8016 36.264 30.8199 33.6233 29.5583 32.5009C29.1045 32.0973 28.5241 31.9267 27.8792 32.0058C27.3266 32.0746 26.7659 32.164 26.2244 32.2504C22.9933 32.7653 20.96 32.9714 19.9068 30.8061C18.2003 27.2989 21.6547 24.701 23.2192 23.747C23.5378 23.5529 23.8333 23.324 24.1079 23.0692C27.8891 22.6172 31.4619 20.9949 34.6457 18.9628C38.4631 21.2436 41.3935 24.8529 42.799 29.1409Z" fill="#1F7A42"/>
</svg>
