<svg width="64" height="64" viewBox="0 0 64 64" fill="none" xmlns="http://www.w3.org/2000/svg">
<path d="M32.0025 2.00317C31.4673 1.98621 30.9341 2.07692 30.4346 2.26991C29.9351 2.46289 29.4795 2.75424 29.0947 3.12665C28.71 3.49906 28.4039 3.94495 28.1947 4.43788C27.9856 4.93081 27.8775 5.46073 27.877 5.9962C27.8765 6.53168 27.9836 7.0618 28.1918 7.55512C28.4 8.04844 28.7053 8.49491 29.0893 8.86805C29.4734 9.24119 29.9285 9.53339 30.4276 9.72733C30.9267 9.92126 31.4597 10.013 31.9949 9.99703C32.5201 9.99752 33.0401 9.89458 33.5255 9.69408C34.0108 9.49358 34.4519 9.19945 34.8236 8.82847C35.1953 8.4575 35.4903 8.01695 35.6917 7.53198C35.8931 7.04701 35.997 6.52712 35.9975 6.00199C35.998 5.47686 35.8951 4.95677 35.6946 4.47142C35.4941 3.98607 35.1999 3.54496 34.829 3.17329C34.458 2.80161 34.0174 2.50665 33.5325 2.30523C33.0475 2.10381 32.5276 2.00367 32.0025 2.00317ZM32.0025 3.9988C32.5328 3.9978 33.0417 4.20749 33.4174 4.58174C33.7931 4.95599 34.0047 5.46415 34.0057 5.99443C34.0067 6.5247 33.797 7.03366 33.4227 7.40933C33.0485 7.785 32.5403 7.99662 32.01 7.99762C31.4798 7.99862 30.9708 7.78893 30.5951 7.41468C30.2195 7.04042 30.0079 6.53226 30.0069 6.00199C30.0058 5.47171 30.2155 4.96276 30.5898 4.58709C30.964 4.21141 31.4722 3.9998 32.0025 3.9988ZM25.2748 8.0014L11.8874 14.1735C10.678 14.7026 11.4868 16.5546 12.7227 15.9877L26.1176 9.81939C27.0512 9.40363 26.8093 7.9825 25.7624 7.90691C25.5941 7.89679 25.426 7.92688 25.2748 8.0014ZM51.2785 15.9953C52.5144 16.5584 53.3232 14.7102 52.1175 14.1773L38.7264 8.0014C38.5748 7.92785 38.407 7.89404 38.2388 7.90313C37.1957 7.97872 36.9538 9.39985 37.8873 9.81561L51.2785 15.9953ZM29.3794 13.41C28.8265 13.6756 28.4002 14.148 28.1926 14.7253C28.0263 15.1184 27.9659 15.3414 27.758 15.5946C27.5501 15.8479 27.1722 16.1729 26.3028 16.5395C25.426 16.9099 24.9195 16.9628 24.5793 16.9402C24.243 16.9175 24.0426 16.8154 23.6609 16.6642C23.1173 16.4229 22.5041 16.3893 21.9374 16.5698C21.2684 16.789 20.6145 17.3219 19.8813 18.0627C19.0876 18.8678 18.6076 19.5292 18.4186 20.1377C18.2517 20.7041 18.2988 21.3121 18.5509 21.8461C18.7058 22.224 18.8079 22.4319 18.8381 22.7645C18.8684 23.0971 18.823 23.6074 18.4677 24.4842C18.1124 25.3611 17.7912 25.758 17.5379 25.9734C17.2885 26.1926 17.0693 26.2607 16.6989 26.4194C16.1445 26.6176 15.6837 27.015 15.4062 27.5344C15.1114 28.1013 14.9905 28.895 15.0018 29.9987C14.9943 31.0116 15.0812 31.8431 15.4062 32.463C15.6842 32.9819 16.1448 33.3791 16.6989 33.578C17.0693 33.7367 17.2772 33.801 17.5304 34.0164C17.7798 34.2356 18.1124 34.6363 18.4677 35.5131C18.8192 36.3711 18.8646 36.8776 18.8381 37.2139C18.8117 37.5428 18.7172 37.7431 18.566 38.1021C18.3195 38.6121 18.2567 39.1916 18.3884 39.7425C18.5455 40.2748 18.8192 40.7654 19.1896 41.1787C18.5093 42.2975 17.9726 43.4843 17.6022 44.7694C16.8857 43.7158 15.9265 42.8498 14.8053 42.2446C15.3255 41.6315 15.6901 40.902 15.8681 40.118C16.0461 39.3339 16.0323 38.5185 15.8278 37.7409C15.6233 36.9634 15.2342 36.2466 14.6935 35.6516C14.1528 35.0565 13.4765 34.6007 12.7221 34.3229C11.9676 34.0451 11.1572 33.9534 10.3597 34.0557C9.56226 34.158 8.80125 34.4512 8.14132 34.9105C7.48139 35.3697 6.94203 35.9814 6.56904 36.6937C6.19604 37.4059 6.00043 38.1977 5.99882 39.0017C5.99504 40.2376 6.44481 41.3677 7.19695 42.2446C5.92381 42.9321 4.86115 43.9523 4.12229 45.1964C3.38344 46.4405 2.99611 47.8617 3.0016 49.3087V50.4803C3.0016 52.9862 5.0199 55.0007 7.49932 55.0007H14.4954C15.4214 55.0007 16.2831 54.7248 17.0012 54.2373V58.0093C17.0012 59.2074 17.3792 60.3829 18.2939 61.1577C19.2085 61.9325 20.5503 62.1744 22.081 61.8758L22.1491 61.8607L31.9949 59.2074L41.8824 61.8683C43.4471 62.1707 44.7511 61.9628 45.7073 61.1577C46.622 60.3867 46.9999 59.215 46.9999 58.0206V54.241C47.7181 54.7286 48.5798 54.997 49.5058 54.997H56.5019C58.9813 54.997 60.9996 52.9862 60.9996 50.4841V49.3087C60.9996 46.251 59.3177 43.6015 56.8042 42.2408C57.5602 41.3715 58.0061 40.2376 58.0061 39.0017C58.0078 38.1947 57.8144 37.3993 57.4422 36.6833C57.07 35.9673 56.5302 35.3519 55.8688 34.8896C55.2074 34.4273 54.444 34.1318 53.6437 34.0283C52.8434 33.9248 52.03 34.0164 51.2727 34.2953C50.5155 34.5741 49.8369 35.032 49.2948 35.6298C48.7528 36.2276 48.3633 36.9476 48.1597 37.7284C47.9561 38.5093 47.9443 39.3278 48.1254 40.1141C48.3065 40.9005 48.675 41.6314 49.1997 42.2446C48.0809 42.8493 47.1209 43.7073 46.399 44.7769C46.0325 43.511 45.4987 42.2996 44.8116 41.175C45.1822 40.7633 45.456 40.2738 45.6128 39.7425C45.7445 39.1916 45.6817 38.6121 45.4352 38.1021C45.284 37.7431 45.1895 37.5428 45.1631 37.2102C45.1366 36.8776 45.182 36.3711 45.5335 35.5093C45.8887 34.6363 46.2213 34.2356 46.4746 34.0164C46.7278 33.801 46.9281 33.7367 47.3061 33.578C47.8601 33.3791 48.3207 32.9819 48.5987 32.463C48.92 31.8431 49.0107 31.0154 49.0031 29.9987C49.0107 28.8913 48.8897 28.1013 48.5987 27.5344C48.321 27.0153 47.8603 26.6179 47.3061 26.4194C46.9281 26.2607 46.7165 26.1926 46.4632 25.9734C46.21 25.758 45.8887 25.3611 45.5335 24.4842C45.1782 23.6074 45.1328 23.0971 45.1631 22.7645C45.1933 22.4319 45.2953 22.2278 45.4541 21.8461C45.7069 21.3123 45.754 20.704 45.5864 20.1377C45.3974 19.533 44.9174 18.8678 44.1237 18.0627C43.3904 17.3219 42.7328 16.7928 42.0638 16.5698C41.323 16.3279 40.7258 16.5168 40.3441 16.668C39.9623 16.8192 39.7582 16.9175 39.4218 16.9402C39.0817 16.9628 38.5752 16.9099 37.7021 16.5395C36.829 16.1729 36.4549 15.8479 36.247 15.5946C36.0391 15.3414 35.9748 15.1184 35.8085 14.7253C35.601 14.148 35.1747 13.6756 34.6217 13.41C33.9754 13.0963 33.1968 12.998 32.0025 12.9943C30.8043 12.9943 30.0295 13.0963 29.3794 13.41ZM5.99882 13.9958C5.47394 13.9956 4.95414 14.0987 4.46912 14.2994C3.98409 14.5 3.54333 14.7942 3.17201 15.1652C2.80069 15.5362 2.50607 15.9766 2.30497 16.4615C2.10388 16.9463 2.00025 17.466 2 17.9909C1.99975 18.5158 2.10289 19.0356 2.30353 19.5206C2.50416 20.0056 2.79836 20.4464 3.16934 20.8177C3.54031 21.189 3.98079 21.4836 4.46563 21.6847C4.95046 21.8858 5.47016 21.9895 5.99504 21.9897C7.05509 21.9902 8.07193 21.5696 8.82185 20.8204C9.57177 20.0712 9.99336 19.0547 9.99386 17.9947C9.99436 16.9346 9.57374 15.9178 8.82452 15.1679C8.07531 14.4179 7.05887 13.9963 5.99882 13.9958ZM58.0024 13.9958C56.9418 13.9948 55.9243 14.4152 55.1737 15.1644C54.423 15.9136 54.0008 16.9303 53.9998 17.9909C53.9988 19.0514 54.4191 20.069 55.1683 20.8196C55.9175 21.5702 56.9342 21.9925 57.9948 21.9935C58.5199 21.994 59.04 21.891 59.5254 21.6905C60.0107 21.49 60.4518 21.1959 60.8235 20.8249C61.1952 20.454 61.4901 20.0134 61.6916 19.5284C61.893 19.0435 61.9969 18.5236 61.9974 17.9984C61.9979 17.4733 61.895 16.9532 61.6945 16.4679C61.494 15.9825 61.1998 15.5414 60.8288 15.1697C60.4579 14.7981 60.0173 14.5031 59.5324 14.3017C59.0474 14.1003 58.5275 13.9963 58.0024 13.9958ZM33.7524 15.2053C33.8885 15.2696 33.9036 15.3792 33.9641 15.5001C34.0775 15.7647 34.2476 16.3052 34.6973 16.857C35.1471 17.4088 35.835 17.9304 36.916 18.3877C37.9931 18.8413 38.8511 18.9887 39.5617 18.9396C40.2685 18.8904 40.7901 18.641 41.0735 18.5314C41.2398 18.4671 41.3268 18.4293 41.4364 18.4671C41.58 18.5125 41.9428 18.6977 42.6988 19.4649C43.4169 20.1944 43.6285 20.5913 43.6739 20.7349C43.7041 20.852 43.655 20.9579 43.5983 21.0864C43.5038 21.3132 43.2317 21.8801 43.1712 22.5869C43.1107 23.2937 43.2392 24.1554 43.6777 25.2326C44.1199 26.3174 44.6188 27.0241 45.1555 27.489C45.6922 27.9501 46.244 28.1429 46.5237 28.2638C46.6825 28.3319 46.758 28.3394 46.8185 28.4528C46.879 28.5738 47.0188 28.9631 47.0075 29.9987C47.0151 30.97 46.8979 31.382 46.8185 31.5408C46.758 31.6579 46.6447 31.6806 46.5237 31.7297C46.2402 31.8507 45.6922 32.0434 45.1555 32.5083C44.6188 32.9694 44.1199 33.68 43.6814 34.7572C43.2506 35.8193 43.1145 36.6659 43.1712 37.3651C43.2241 38.0644 43.4547 38.5368 43.5907 38.8694C43.6512 39.0357 43.7079 39.1264 43.6777 39.2398C43.6543 39.3125 43.6252 39.3833 43.5907 39.4515C42.0924 37.6377 40.1894 36.2007 38.0347 35.2561C39.2669 33.8463 40.0001 32.0094 40.0001 30.0025C39.9971 27.8822 39.1543 25.8495 37.6562 24.3492C36.158 22.8489 34.1265 22.0033 32.0063 21.9973C27.5992 21.9973 24.0048 25.5917 24.0048 29.9987C24.0048 32.0094 24.7381 33.8463 25.9702 35.2523C23.8154 36.1967 21.9124 37.6337 20.4142 39.4477C20.3802 39.3806 20.3512 39.3111 20.3273 39.2398C20.2971 39.1264 20.3575 39.0357 20.4142 38.8694C20.5541 38.5406 20.7808 38.0644 20.8338 37.3651C20.8867 36.6659 20.7582 35.8193 20.3273 34.7572C19.8889 33.6762 19.3899 32.9694 18.8532 32.5083C18.3128 32.0434 17.7647 31.8507 17.485 31.7297C17.3603 31.6806 17.2507 31.6579 17.1902 31.5408C17.1071 31.382 16.9899 30.97 16.9975 29.9987C16.9899 28.9631 17.126 28.5738 17.1864 28.4528C17.2507 28.3394 17.3263 28.3319 17.485 28.2638C17.7647 28.1429 18.3128 27.9501 18.8495 27.489C19.3899 27.0241 19.8889 26.3174 20.3273 25.2364C20.7657 24.1554 20.8942 23.2937 20.8338 22.5869C20.7733 21.8801 20.5012 21.3169 20.4067 21.0864C20.3537 20.9579 20.3008 20.852 20.3311 20.7349C20.3764 20.5913 20.5881 20.1944 21.3062 19.4649C22.0621 18.6977 22.4288 18.5125 22.5724 18.4671C22.682 18.4293 22.7651 18.4671 22.9314 18.5314C23.2149 18.6448 23.7403 18.8904 24.4433 18.9396C25.1538 18.9887 26.0118 18.8413 27.089 18.3877C28.17 17.9304 28.8616 17.405 29.3114 16.857C29.7574 16.3052 29.9313 15.7647 30.0409 15.4963C30.1051 15.3792 30.1165 15.2696 30.2563 15.2053C30.415 15.1297 30.9442 14.9974 32.0063 14.9974C33.0646 14.9974 33.5899 15.1259 33.7524 15.2053ZM5.99882 15.999C6.2684 15.9866 6.53771 16.0288 6.79053 16.1232C7.04336 16.2176 7.27445 16.3622 7.4699 16.5483C7.66535 16.7343 7.82111 16.9581 7.92778 17.206C8.03446 17.4539 8.08985 17.7208 8.09061 17.9906C8.09138 18.2605 8.03751 18.5277 7.93224 18.7762C7.82697 19.0247 7.67249 19.2493 7.4781 19.4365C7.28371 19.6237 7.05344 19.7696 6.80116 19.8654C6.54887 19.9613 6.2798 20.005 6.01016 19.9941C5.49532 19.9732 5.00842 19.7543 4.65101 19.3832C4.2936 19.012 4.09327 18.5172 4.09181 18.002C4.09035 17.4867 4.28786 16.9908 4.64316 16.6176C4.99846 16.2444 5.48411 16.0228 5.99882 15.999ZM58.0024 15.999C58.5326 15.999 59.0412 16.2097 59.4162 16.5846C59.7911 16.9596 60.0018 17.4682 60.0018 17.9984C60.0018 18.5287 59.7911 19.0373 59.4162 19.4122C59.0412 19.7872 58.5326 19.9979 58.0024 19.9979C57.4933 19.9665 57.0154 19.7423 56.666 19.3707C56.3167 18.9992 56.1222 18.5084 56.1222 17.9984C56.1222 17.4885 56.3167 16.9977 56.666 16.6262C57.0154 16.2546 57.4933 16.0303 58.0024 15.999ZM7.80169 23.6225C7.64233 23.613 7.48301 23.6417 7.33699 23.7062C7.19097 23.7707 7.0625 23.8692 6.96228 23.9935C6.86205 24.1178 6.79299 24.2642 6.76083 24.4206C6.72867 24.5769 6.73436 24.7387 6.77742 24.8924L8.53493 31.5521C8.8373 32.8939 10.8594 32.3609 10.4663 31.0419L8.70879 24.386C8.65856 24.1787 8.5435 23.9929 8.38035 23.8556C8.21719 23.7183 8.01447 23.6366 7.80169 23.6225ZM56.1995 23.6225C55.9865 23.636 55.7835 23.7175 55.6202 23.8549C55.457 23.9923 55.3421 24.1784 55.2924 24.386L53.5349 31.0419C53.1418 32.3647 55.1601 32.8939 55.47 31.5521L57.2275 24.8924C57.2707 24.7384 57.2764 24.5762 57.244 24.4196C57.2117 24.2629 57.1423 24.1162 57.0416 23.9919C56.941 23.8675 56.812 23.7691 56.6654 23.7048C56.5189 23.6406 56.3592 23.6123 56.1995 23.6225ZM32.0025 23.9967C33.5943 23.9967 35.1209 24.629 36.2465 25.7546C37.3721 26.8802 38.0045 28.4069 38.0045 29.9987C38.0045 31.5905 37.3721 33.1171 36.2465 34.2427C35.1209 35.3683 33.5943 36.0007 32.0025 36.0007C30.4107 36.0007 28.884 35.3683 27.7584 34.2427C26.6328 33.1171 26.0005 31.5905 26.0005 29.9987C26.0005 28.4069 26.6328 26.8802 27.7584 25.7546C28.884 24.629 30.4107 23.9967 32.0025 23.9967ZM10.9992 35.9969C11.7946 35.9969 12.5575 36.3129 13.1199 36.8753C13.6824 37.4378 13.9983 38.2006 13.9983 38.996C13.9983 39.7914 13.6824 40.5543 13.1199 41.1167C12.5575 41.6792 11.7946 41.9951 10.9992 41.9951C10.2038 41.9951 9.44098 41.6792 8.87854 41.1167C8.3161 40.5543 8.00012 39.7914 8.00012 38.996C8.00012 38.2006 8.3161 37.4378 8.87854 36.8753C9.44098 36.3129 10.2038 35.9969 10.9992 35.9969ZM53.0019 35.9969C53.4047 35.9821 53.8064 36.0486 54.1829 36.1924C54.5594 36.3362 54.9031 36.5544 55.1935 36.8339C55.4839 37.1135 55.7149 37.4486 55.8729 37.8194C56.0309 38.1902 56.1126 38.5891 56.1131 38.9921C56.1137 39.3952 56.033 39.7942 55.8759 40.1654C55.7188 40.5366 55.4886 40.8723 55.1989 41.1526C54.9093 41.4329 54.5661 41.6519 54.19 41.7967C53.8138 41.9414 53.4123 42.0089 53.0095 41.9951C52.2325 41.9685 51.4961 41.6414 50.9554 41.0827C50.4148 40.5239 50.1121 39.7772 50.1111 38.9997C50.1102 38.2222 50.411 37.4747 50.9502 36.9145C51.4894 36.3544 52.225 36.0255 53.0019 35.9969ZM25.0027 52.4533V48.9912C24.9724 47.6872 23.0335 47.6872 22.9995 48.9912V52.9673L22.7538 53.0316C21.4574 53.3604 21.9525 55.2993 23.2451 54.9705L38.3635 51.0889C38.6288 51.0174 38.9056 50.9989 39.1781 51.0344C39.4505 51.0698 39.7133 51.1587 39.9515 51.2957C40.1896 51.4328 40.3984 51.6154 40.566 51.8331C40.7335 52.0509 40.8565 52.2995 40.928 52.5648C40.9995 52.8301 41.018 53.1069 40.9825 53.3793C40.947 53.6518 40.8582 53.9146 40.7212 54.1527C40.5841 54.3908 40.4015 54.5996 40.1837 54.7672C39.966 54.9348 39.7174 55.0578 39.4521 55.1293L21.6955 59.9067H21.6879C20.5541 60.1259 19.9418 59.9256 19.5865 59.627C19.2274 59.3246 19.0044 58.7992 19.0044 58.0018V48.9987C19.0044 43.2953 22.6404 38.4839 27.6711 36.7264C28.9618 37.5564 30.4641 37.9977 31.9987 37.9977C33.5333 37.9977 35.0356 37.5564 36.3263 36.7264C38.8691 37.6156 41.0712 39.2757 42.626 41.4754C44.1807 43.6752 45.0108 46.305 45.0005 48.9987V58.0169C45.0005 58.803 44.7738 59.3246 44.4185 59.627C44.0594 59.9293 43.4509 60.1259 42.3132 59.9067L35.8501 58.1681L39.9699 57.0569C40.7473 56.8479 41.4458 56.4144 41.9781 55.8105C42.5104 55.2066 42.8528 54.4592 42.9626 53.6617C43.0723 52.8643 42.9444 52.0521 42.595 51.3269C42.2455 50.6017 41.69 49.9957 40.9979 49.5846V48.9874C40.9677 47.6834 39.0288 47.6948 38.9985 49.0214C38.6167 49.0064 38.2347 49.0471 37.8646 49.1424L25.0027 52.4533ZM36.0013 43.0005C34.6973 43.0307 34.6973 44.9697 36.0013 44.9999H38.9985C40.3025 44.9697 40.3025 43.027 38.9985 42.9967L36.0013 43.0005ZM9.06408 43.6052C9.67805 43.8628 10.3372 43.9955 11.003 43.9955C11.6688 43.9955 12.328 43.8628 12.9419 43.6052C14.1299 44.0122 15.1604 44.7813 15.8885 45.8044C16.6166 46.8274 17.0058 48.053 17.0012 49.3087V50.4803C17.0042 50.811 16.9416 51.1389 16.8169 51.4451C16.6922 51.7514 16.508 52.0298 16.2749 52.2643C16.0418 52.4988 15.7645 52.6847 15.459 52.8112C15.1536 52.9377 14.826 53.0024 14.4954 53.0013H7.49932C7.16946 53.0009 6.84296 52.9351 6.53859 52.808C6.23422 52.6809 5.95799 52.4948 5.72581 52.2605C5.49362 52.0262 5.31005 51.7483 5.18566 51.4428C5.06127 51.1373 4.99851 50.8102 5.001 50.4803V49.3087C5.001 46.6667 6.68671 44.4065 9.06408 43.6052ZM51.0592 43.6052C51.6734 43.8646 52.3334 43.9982 53.0001 43.9982C53.6668 43.9982 54.3267 43.8646 54.9409 43.6052C57.3145 44.4027 59.0002 46.6667 59.0002 49.3087V50.4803C59.0002 51.8599 57.9041 53.0013 56.5056 53.0013H49.5058C49.1755 53.0013 48.8484 52.936 48.5434 52.8092C48.2383 52.6823 47.9614 52.4963 47.7285 52.262C47.4956 52.0277 47.3114 51.7497 47.1863 51.4439C47.0613 51.1382 46.9979 50.8107 46.9999 50.4803V49.3087C46.9999 46.6705 48.6856 44.4065 51.0592 43.6052Z" fill="#1F7A42"/>
</svg>
