<svg width="64" height="64" viewBox="0 0 64 64" fill="none" xmlns="http://www.w3.org/2000/svg">
<path d="M42 43C42.2652 43 42.5196 42.8946 42.7071 42.7071C42.8946 42.5196 43 42.2652 43 42C43 41.7348 42.8946 41.4804 42.7071 41.2929C42.5196 41.1054 42.2652 41 42 41H40V39H41C41.2652 39 41.5196 38.8946 41.7071 38.7071C41.8946 38.5196 42 38.2652 42 38C42 37.7348 41.8946 37.4804 41.7071 37.2929C41.5196 37.1054 41.2652 37 41 37H40C40 36.7348 39.8946 36.4804 39.7071 36.2929C39.5196 36.1054 39.2652 36 39 36V35C39 34.7348 38.8946 34.4804 38.7071 34.2929C38.5196 34.1054 38.2652 34 38 34C37.7348 34 37.4804 34.1054 37.2929 34.2929C37.1054 34.4804 37 34.7348 37 35V36H35V34C35 33.7348 34.8946 33.4804 34.7071 33.2929C34.5196 33.1054 34.2652 33 34 33C33.7348 33 33.4804 33.1054 33.2929 33.2929C33.1054 33.4804 33 33.7348 33 34V36H31V34C31 33.7348 30.8946 33.4804 30.7071 33.2929C30.5196 33.1054 30.2652 33 30 33C29.7348 33 29.4804 33.1054 29.2929 33.2929C29.1054 33.4804 29 33.7348 29 34V36H27V35C27 34.7348 26.8946 34.4804 26.7071 34.2929C26.5196 34.1054 26.2652 34 26 34C25.7348 34 25.4804 34.1054 25.2929 34.2929C25.1054 34.4804 25 34.7348 25 35V36C24.7348 36 24.4804 36.1054 24.2929 36.2929C24.1054 36.4804 24 36.7348 24 37H23.125C22.8598 37 22.6054 37.1054 22.4179 37.2929C22.2304 37.4804 22.125 37.7348 22.125 38C22.125 38.2652 22.2304 38.5196 22.4179 38.7071C22.6054 38.8946 22.8598 39 23.125 39H24V41H22C21.7348 41 21.4804 41.1054 21.2929 41.2929C21.1054 41.4804 21 41.7348 21 42C21 42.2652 21.1054 42.5196 21.2929 42.7071C21.4804 42.8946 21.7348 43 22 43H24V45H22C21.7348 45 21.4804 45.1054 21.2929 45.2929C21.1054 45.4804 21 45.7348 21 46C21 46.2652 21.1054 46.5196 21.2929 46.7071C21.4804 46.8946 21.7348 47 22 47H24V49H23C22.7348 49 22.4804 49.1054 22.2929 49.2929C22.1054 49.4804 22 49.7348 22 50C22 50.2652 22.1054 50.5196 22.2929 50.7071C22.4804 50.8946 22.7348 51 23 51H24C24 51.2652 24.1054 51.5196 24.2929 51.7071C24.4804 51.8946 24.7348 52 25 52V53C25 53.2652 25.1054 53.5196 25.2929 53.7071C25.4804 53.8946 25.7348 54 26 54C26.2652 54 26.5196 53.8946 26.7071 53.7071C26.8946 53.5196 27 53.2652 27 53V52H29V54C29 54.2652 29.1054 54.5196 29.2929 54.7071C29.4804 54.8946 29.7348 55 30 55C30.2652 55 30.5196 54.8946 30.7071 54.7071C30.8946 54.5196 31 54.2652 31 54V52H33V54C33 54.2652 33.1054 54.5196 33.2929 54.7071C33.4804 54.8946 33.7348 55 34 55C34.2652 55 34.5196 54.8946 34.7071 54.7071C34.8946 54.5196 35 54.2652 35 54V52H37V53C37 53.2652 37.1054 53.5196 37.2929 53.7071C37.4804 53.8946 37.7348 54 38 54C38.2652 54 38.5196 53.8946 38.7071 53.7071C38.8946 53.5196 39 53.2652 39 53V52C39.2652 52 39.5196 51.8946 39.7071 51.7071C39.8946 51.5196 40 51.2652 40 51H40.875C41.1402 51 41.3946 50.8946 41.5821 50.7071C41.7696 50.5196 41.875 50.2652 41.875 50C41.875 49.7348 41.7696 49.4804 41.5821 49.2929C41.3946 49.1054 41.1402 49 40.875 49H40V47H42C42.2652 47 42.5196 46.8946 42.7071 46.7071C42.8946 46.5196 43 46.2652 43 46C43 45.7348 42.8946 45.4804 42.7071 45.2929C42.5196 45.1054 42.2652 45 42 45H40V43H42ZM26 50V38H38V50H26Z" fill="#1F7A42"/>
<path d="M36 39H28C27.7348 39 27.4804 39.1054 27.2929 39.2929C27.1054 39.4804 27 39.7348 27 40V48C27 48.2652 27.1054 48.5196 27.2929 48.7071C27.4804 48.8946 27.7348 49 28 49H36C36.2652 49 36.5196 48.8946 36.7071 48.7071C36.8946 48.5196 37 48.2652 37 48V40C37 39.7348 36.8946 39.4804 36.7071 39.2929C36.5196 39.1054 36.2652 39 36 39ZM35 47H29V41H35V47ZM60 41C59.3799 41.0008 58.7752 41.1934 58.2688 41.5515C57.7625 41.9096 57.3794 42.4156 57.172 43H49V45H57.172C57.3553 45.5186 57.6777 45.9767 58.1039 46.3244C58.53 46.6722 59.0436 46.896 59.5884 46.9716C60.1332 47.0471 60.6883 46.9714 61.193 46.7528C61.6976 46.5342 62.1325 46.181 62.45 45.7319C62.7676 45.2828 62.9555 44.755 62.9933 44.2063C63.0311 43.6576 62.9174 43.109 62.6645 42.6206C62.4116 42.1322 62.0293 41.7227 61.5594 41.4369C61.0895 41.1511 60.55 40.9999 60 41ZM60 45C59.8022 45 59.6089 44.9414 59.4444 44.8315C59.28 44.7216 59.1518 44.5654 59.0761 44.3827C59.0004 44.2 58.9806 43.9989 59.0192 43.8049C59.0578 43.6109 59.153 43.4327 59.2929 43.2929C59.4327 43.153 59.6109 43.0578 59.8049 43.0192C59.9989 42.9806 60.2 43.0004 60.3827 43.0761C60.5654 43.1518 60.7216 43.28 60.8315 43.4444C60.9414 43.6089 61 43.8022 61 44C60.9997 44.2651 60.8943 44.5193 60.7068 44.7068C60.5193 44.8943 60.2651 44.9997 60 45Z" fill="#1F7A42"/>
<path d="M56.0009 53C55.3808 53.0008 54.7762 53.1934 54.2699 53.5515C53.7637 53.9096 53.3807 54.4156 53.1734 55H52.0009V52C52.0009 51.7348 51.8956 51.4804 51.708 51.2929C51.5205 51.1054 51.2661 51 51.0009 51H47.4922C48.486 48.8003 49.0003 46.4142 49.0009 44.0004C49.0015 41.5866 48.4885 39.2003 47.4959 37H51.0009C51.2661 37 51.5205 36.8946 51.708 36.7071C51.8956 36.5196 52.0009 36.2652 52.0009 36V33H53.1734C53.4093 33.6672 53.8735 34.2296 54.4839 34.5876C55.0943 34.9457 55.8117 35.0765 56.5092 34.9568C57.2067 34.8371 57.8394 34.4747 58.2955 33.9337C58.7517 33.3926 59.0019 32.7077 59.0019 32C59.0019 31.2923 58.7517 30.6074 58.2955 30.0663C57.8394 29.5253 57.2067 29.1629 56.5092 29.0432C55.8117 28.9235 55.0943 29.0543 54.4839 29.4124C53.8735 29.7704 53.4093 30.3328 53.1734 31H51.0009C50.7357 31 50.4814 31.1054 50.2938 31.2929C50.1063 31.4804 50.0009 31.7348 50.0009 32V35H46.4234C46.3959 34.9562 46.3697 34.9113 46.3422 34.8688C44.7679 32.3991 42.584 30.3766 40.0009 28.9963V23H42.0009C42.2661 23 42.5205 22.8946 42.708 22.7071C42.8956 22.5196 43.0009 22.2652 43.0009 22V18C43.0009 17.7348 42.8956 17.4804 42.708 17.2929C42.5205 17.1054 42.2661 17 42.0009 17H22.0009C21.7357 17 21.4814 17.1054 21.2938 17.2929C21.1063 17.4804 21.0009 17.7348 21.0009 18V22C21.0009 22.2652 21.1063 22.5196 21.2938 22.7071C21.4814 22.8946 21.7357 23 22.0009 23H24.0009V28.9963C21.4179 30.3766 19.2339 32.3991 17.6597 34.8688C17.6322 34.9113 17.6059 34.9562 17.5784 35H14.0009V32C14.0009 31.7348 13.8956 31.4804 13.708 31.2929C13.5205 31.1054 13.2661 31 13.0009 31H10.8284C10.5925 30.3328 10.1284 29.7704 9.51795 29.4124C8.90754 29.0543 8.19019 28.9235 7.49269 29.0432C6.7952 29.1629 6.16246 29.5253 5.70632 30.0663C5.25018 30.6074 5 31.2923 5 32C5 32.7077 5.25018 33.3926 5.70632 33.9337C6.16246 34.4747 6.7952 34.8371 7.49269 34.9568C8.19019 35.0765 8.90754 34.9457 9.51795 34.5876C10.1284 34.2296 10.5925 33.6672 10.8284 33H12.0009V36C12.0009 36.2652 12.1063 36.5196 12.2938 36.7071C12.4814 36.8946 12.7357 37 13.0009 37H16.5059C15.5133 39.2003 15.0003 41.5866 15.001 44.0004C15.0016 46.4142 15.5159 48.8003 16.5097 51H13.0009C12.7357 51 12.4814 51.1054 12.2938 51.2929C12.1063 51.4804 12.0009 51.7348 12.0009 52V55H10.8284C10.5925 54.3328 10.1284 53.7704 9.51795 53.4124C8.90754 53.0543 8.19019 52.9235 7.49269 53.0432C6.7952 53.1629 6.16246 53.5253 5.70632 54.0663C5.25018 54.6074 5 55.2923 5 56C5 56.7077 5.25018 57.3926 5.70632 57.9337C6.16246 58.4747 6.7952 58.8371 7.49269 58.9568C8.19019 59.0765 8.90754 58.9457 9.51795 58.5876C10.1284 58.2296 10.5925 57.6672 10.8284 57H13.0009C13.2661 57 13.5205 56.8946 13.708 56.7071C13.8956 56.5196 14.0009 56.2652 14.0009 56V53H17.5847C19.1109 55.4476 21.2352 57.4664 23.7573 58.866C26.2795 60.2656 29.1165 61 32.0009 61C34.8854 61 37.7224 60.2656 40.2445 58.866C42.7667 57.4664 44.891 55.4476 46.4172 53H50.0009V56C50.0009 56.2652 50.1063 56.5196 50.2938 56.7071C50.4814 56.8946 50.7357 57 51.0009 57H53.1734C53.3568 57.5186 53.6792 57.9768 54.1053 58.3245C54.5315 58.6722 55.0451 58.8961 55.5899 58.9716C56.1348 59.0471 56.6899 58.9714 57.1946 58.7527C57.6993 58.534 58.1341 58.1808 58.4516 57.7317C58.7691 57.2825 58.957 56.7547 58.9948 56.206C59.0325 55.6573 58.9187 55.1087 58.6658 54.6203C58.4128 54.1319 58.0304 53.7224 57.5604 53.4366C57.0905 53.1509 56.551 52.9998 56.0009 53ZM56.0009 31C56.1987 31 56.392 31.0586 56.5565 31.1685C56.7209 31.2784 56.8491 31.4346 56.9248 31.6173C57.0005 31.8 57.0203 32.0011 56.9817 32.1951C56.9431 32.3891 56.8479 32.5673 56.708 32.7071C56.5682 32.847 56.39 32.9422 56.196 32.9808C56.002 33.0194 55.801 32.9996 55.6182 32.9239C55.4355 32.8482 55.2793 32.72 55.1695 32.5556C55.0596 32.3911 55.0009 32.1978 55.0009 32C55.0013 31.7349 55.1068 31.4808 55.2942 31.2933C55.4817 31.1058 55.7358 31.0004 56.0009 31ZM8.00093 33C7.80315 33 7.60981 32.9414 7.44536 32.8315C7.28091 32.7216 7.15273 32.5654 7.07705 32.3827C7.00136 32.2 6.98156 31.9989 7.02014 31.8049C7.05873 31.6109 7.15397 31.4327 7.29382 31.2929C7.43367 31.153 7.61186 31.0578 7.80584 31.0192C7.99982 30.9806 8.20088 31.0004 8.38361 31.0761C8.56634 31.1518 8.72252 31.28 8.8324 31.4444C8.94228 31.6089 9.00093 31.8022 9.00093 32C9.00056 32.2651 8.89509 32.5192 8.70763 32.7067C8.52017 32.8942 8.26603 32.9996 8.00093 33ZM8.00093 57C7.80315 57 7.60981 56.9414 7.44536 56.8315C7.28091 56.7216 7.15273 56.5654 7.07705 56.3827C7.00136 56.2 6.98156 55.9989 7.02014 55.8049C7.05873 55.6109 7.15397 55.4327 7.29382 55.2929C7.43367 55.153 7.61186 55.0578 7.80584 55.0192C7.99982 54.9806 8.20088 55.0004 8.38361 55.0761C8.56634 55.1518 8.72252 55.28 8.8324 55.4444C8.94228 55.6089 9.00093 55.8022 9.00093 56C9.00056 56.2651 8.89509 56.5192 8.70763 56.7067C8.52017 56.8942 8.26603 56.9996 8.00093 57ZM23.0009 21V19H41.0009V21H23.0009ZM32.0009 59C28.6076 58.9996 25.3146 57.8488 22.6597 55.7355C20.0048 53.6222 18.1447 50.6712 17.3832 47.3645C16.6217 44.0577 17.0038 40.5904 18.4671 37.5288C19.9303 34.4671 22.3883 31.992 25.4397 30.5075C25.6081 30.4254 25.75 30.2976 25.8493 30.1387C25.9485 29.9797 26.0011 29.7961 26.0009 29.6087V23H38.0009V29.6087C38.0008 29.7961 38.0534 29.9797 38.1526 30.1387C38.2518 30.2976 38.3938 30.4254 38.5622 30.5075C41.6135 31.9921 44.0713 34.4672 45.5345 37.5288C46.9977 40.5904 47.3797 44.0576 46.6182 47.3644C45.8567 50.6711 43.9967 53.622 41.3419 55.7353C38.6871 57.8486 35.3942 58.9995 32.0009 59ZM56.0009 57C55.8031 57 55.6098 56.9414 55.4454 56.8315C55.2809 56.7216 55.1527 56.5654 55.077 56.3827C55.0014 56.2 54.9816 55.9989 55.0201 55.8049C55.0587 55.6109 55.154 55.4327 55.2938 55.2929C55.4337 55.153 55.6119 55.0578 55.8058 55.0192C55.9998 54.9806 56.2009 55.0004 56.3836 55.0761C56.5663 55.1518 56.7225 55.28 56.8324 55.4444C56.9423 55.6089 57.0009 55.8022 57.0009 56C57.0006 56.2651 56.8951 56.5192 56.7076 56.7067C56.5202 56.8942 56.266 56.9996 56.0009 57Z" fill="#1F7A42"/>
<path d="M6.82843 43C6.59253 42.3328 6.12836 41.7704 5.51795 41.4124C4.90754 41.0543 4.19019 40.9235 3.49269 41.0432C2.7952 41.1629 2.16246 41.5253 1.70632 42.0663C1.25018 42.6074 1 43.2923 1 44C1 44.7077 1.25018 45.3926 1.70632 45.9337C2.16246 46.4747 2.7952 46.8371 3.49269 46.9568C4.19019 47.0765 4.90754 46.9457 5.51795 46.5876C6.12836 46.2296 6.59253 45.6672 6.82843 45H15.0004V43H6.82843ZM4.00043 45C3.80265 45 3.60931 44.9414 3.44486 44.8315C3.28041 44.7216 3.15224 44.5654 3.07655 44.3827C3.00086 44.2 2.98106 43.9989 3.01964 43.8049C3.05823 43.6109 3.15347 43.4327 3.29332 43.2929C3.43317 43.153 3.61136 43.0578 3.80534 43.0192C3.99932 42.9806 4.20038 43.0004 4.38311 43.0761C4.56584 43.1518 4.72202 43.28 4.8319 43.4444C4.94178 43.6089 5.00043 43.8022 5.00043 44C5.00013 44.2651 4.89468 44.5193 4.70721 44.7068C4.51973 44.8943 4.26555 44.9997 4.00043 45ZM27.0004 15C27.5938 15 28.1738 14.8241 28.6671 14.4944C29.1605 14.1648 29.545 13.6962 29.7721 13.1481C29.9991 12.5999 30.0585 11.9967 29.9428 11.4147C29.827 10.8328 29.5413 10.2982 29.1217 9.87868C28.7022 9.45912 28.1676 9.1734 27.5857 9.05765C27.0038 8.94189 26.4006 9.0013 25.8524 9.22836C25.3042 9.45543 24.8357 9.83994 24.506 10.3333C24.1764 10.8266 24.0004 11.4067 24.0004 12C24.0013 12.7954 24.3177 13.5579 24.8801 14.1203C25.4425 14.6828 26.2051 14.9991 27.0004 15ZM27.0004 11C27.1982 11 27.3915 11.0587 27.556 11.1685C27.7204 11.2784 27.8486 11.4346 27.9243 11.6173C28 11.8 28.0198 12.0011 27.9812 12.1951C27.9426 12.3891 27.8474 12.5673 27.7075 12.7071C27.5677 12.847 27.3895 12.9422 27.1955 12.9808C27.0015 13.0194 26.8005 12.9996 26.6177 12.9239C26.435 12.8482 26.2788 12.72 26.169 12.5556C26.0591 12.3911 26.0004 12.1978 26.0004 12C26.0007 11.7349 26.1062 11.4807 26.2936 11.2932C26.4811 11.1058 26.7353 11.0003 27.0004 11ZM37.0004 11C37.7916 11 38.5649 10.7654 39.2227 10.3259C39.8805 9.88635 40.3932 9.26164 40.6959 8.53074C40.9987 7.79983 41.0779 6.99556 40.9236 6.21964C40.7692 5.44372 40.3883 4.73098 39.8289 4.17157C39.2694 3.61216 38.5567 3.2312 37.7808 3.07686C37.0049 2.92252 36.2006 3.00173 35.4697 3.30448C34.7388 3.60723 34.1141 4.11992 33.6745 4.77772C33.235 5.43552 33.0004 6.20888 33.0004 7C33.0016 8.0605 33.4234 9.07723 34.1733 9.82711C34.9232 10.577 35.9399 10.9988 37.0004 11ZM37.0004 5C37.396 5 37.7827 5.1173 38.1116 5.33706C38.4405 5.55683 38.6968 5.86918 38.8482 6.23463C38.9996 6.60009 39.0392 7.00222 38.962 7.39018C38.8848 7.77814 38.6943 8.13451 38.4146 8.41422C38.1349 8.69392 37.7786 8.8844 37.3906 8.96157C37.0026 9.03874 36.6005 8.99914 36.2351 8.84776C35.8696 8.69639 35.5573 8.44004 35.3375 8.11114C35.1177 7.78224 35.0004 7.39556 35.0004 7C35.0011 6.46976 35.212 5.96142 35.5869 5.58648C35.9618 5.21155 36.4702 5.00063 37.0004 5Z" fill="#1F7A42"/>
<path d="M35 15C35.5523 15 36 14.5523 36 14C36 13.4477 35.5523 13 35 13C34.4477 13 34 13.4477 34 14C34 14.5523 34.4477 15 35 15Z" fill="#1F7A42"/>
</svg>
