<svg width="64" height="64" viewBox="0 0 64 64" fill="none" xmlns="http://www.w3.org/2000/svg">
<g clip-path="url(#clip0_38277_230)">
<path d="M62.7506 0H42.8919C42.6447 6.3006e-05 42.403 0.0734112 42.1975 0.210773C41.992 0.348135 41.8318 0.543344 41.7372 0.771725C41.6426 1.00011 41.6179 1.25141 41.6661 1.49386C41.7143 1.73631 41.8332 1.95904 42.008 2.13387L46.6855 6.81138L30.9423 22.5546L16.4025 8.01488C15.9143 7.52688 15.123 7.52688 14.6346 8.01488L0.37 22.2795C-0.118125 22.7676 -0.118125 23.5591 0.37 24.0474C0.614125 24.2914 0.934 24.4135 1.25388 24.4135C1.57375 24.4135 1.89362 24.2914 2.13775 24.0474L15.5186 10.6666L32.9323 28.0802C33.1764 28.3242 33.4963 28.4464 33.8161 28.4464C34.136 28.4464 34.4559 28.3242 34.7 28.0802C35.1881 27.5921 35.1881 26.8006 34.7 26.3124L32.7101 24.3225L48.4533 8.57925L55.4331 15.5591L42.7465 28.2459C42.2584 28.734 42.2584 29.5255 42.7465 30.0138C42.9906 30.2577 43.3105 30.3799 43.6304 30.3799C43.9502 30.3799 44.2701 30.2577 44.5143 30.0138L57.2009 17.327L61.8666 21.9928C62.0414 22.1677 62.2641 22.2868 62.5066 22.3351C62.7492 22.3834 63.0006 22.3587 63.229 22.2641C63.4575 22.1695 63.6527 22.0092 63.79 21.8035C63.9274 21.5979 64.0006 21.3562 64.0005 21.1089V1.25C64.0006 0.55975 63.4409 0 62.7506 0ZM61.5006 18.091L45.9096 2.5H61.5006V18.091ZM41.4205 31.34C41.1881 31.1063 40.8656 30.9737 40.5369 30.9737C40.2081 30.9737 39.8856 31.1063 39.6531 31.34C39.4194 31.5725 39.2869 31.895 39.2869 32.2238C39.2869 32.5525 39.4194 32.875 39.6531 33.1074C39.8856 33.3399 40.2081 33.4738 40.5369 33.4738C40.8656 33.4738 41.1881 33.34 41.4205 33.1074C41.653 32.875 41.7869 32.5525 41.7869 32.2238C41.7869 31.895 41.6531 31.5725 41.4205 31.34Z" fill="#1F7A42"/>
<path d="M24.062 33.1694L17.2868 26.3943L19.3041 24.3769C19.7924 23.8888 19.7924 23.0973 19.3043 22.6092C18.816 22.1212 18.0247 22.1212 17.5364 22.6092L0.37 39.7755C-0.118125 40.2637 -0.118125 41.0552 0.37 41.5434C0.485957 41.6596 0.623732 41.7518 0.775414 41.8146C0.927095 41.8775 1.0897 41.9097 1.25388 41.9095C1.41805 41.9097 1.58065 41.8775 1.73234 41.8146C1.88402 41.7518 2.02179 41.6596 2.13775 41.5434L15.519 28.1622L22.2943 34.9373C22.5384 35.1813 22.8582 35.3034 23.1781 35.3034C23.498 35.3034 23.8179 35.1813 24.062 34.9373C24.5501 34.4492 24.5501 33.6577 24.062 33.1694ZM32.0595 45.8628L32.0011 45.8627C31.3109 45.8627 30.7511 46.4224 30.7511 47.1127C30.7511 47.8029 31.3109 48.3627 32.0011 48.3627L32.041 48.3628H32.0505C32.7364 48.3628 33.2951 47.8092 33.3003 47.122C33.3054 46.4318 32.7499 45.8679 32.0595 45.8628Z" fill="#1F7A42"/>
<path d="M62.75 61.5H60.5575V55.8984C60.5575 55.6194 60.4642 55.3485 60.2925 55.1287C60.1207 54.9089 59.8803 54.7529 59.6096 54.6855L53.7998 53.238L51.717 48.2125L54.8013 43.0816C54.945 42.8425 55.0046 42.5622 54.9707 42.2854C54.9367 42.0085 54.8111 41.7509 54.6139 41.5536L49.7696 36.7094C49.5723 36.5121 49.3148 36.3866 49.0379 36.3526C48.761 36.3187 48.4807 36.3783 48.2416 36.522L43.1106 39.6062L38.0853 37.5236L36.6377 31.7137C36.5704 31.4431 36.4144 31.2027 36.1946 31.0309C35.9748 30.8591 35.7038 30.7658 35.4249 30.7659H28.575C28.296 30.7658 28.0251 30.8591 27.8053 31.0309C27.5855 31.2027 27.4295 31.4431 27.3621 31.7137L25.9146 37.5236L20.8892 39.6062L15.7583 36.522C15.5192 36.3782 15.2389 36.3186 14.962 36.3526C14.6851 36.3865 14.4275 36.5121 14.2303 36.7094L9.38612 41.5537C9.18887 41.751 9.06326 42.0086 9.02931 42.2855C8.99535 42.5624 9.055 42.8427 9.19875 43.0817L12.283 48.2125L10.2004 53.238L4.3905 54.6855C4.11981 54.7529 3.87944 54.9089 3.70767 55.1287C3.53589 55.3485 3.4426 55.6194 3.44263 55.8984V61.5H1.25C0.55975 61.5 0 62.0597 0 62.75C0 63.4402 0.55975 64 1.25 64H62.75C63.4403 64 64 63.4402 64 62.75C64 62.0597 63.4403 61.5 62.75 61.5ZM58.0573 61.5H45.2822C45.9765 57.2539 44.6041 52.8916 41.5177 49.8051C40.1644 48.4517 38.5779 47.4224 36.8027 46.7455C36.1577 46.4995 35.4355 46.823 35.1895 47.4681C34.9435 48.1131 35.2671 48.8354 35.9121 49.0814C37.356 49.6319 38.6474 50.4701 39.75 51.5729C42.3609 54.1839 43.4655 57.9165 42.7414 61.4999H21.2576C20.5336 57.9164 21.6383 54.1837 24.2493 51.5729C25.3628 50.4594 26.668 49.6159 28.1286 49.0656C28.7748 48.8224 29.1011 48.1012 28.8579 47.4552C28.6145 46.8092 27.8935 46.483 27.2475 46.726C25.4517 47.4024 23.8481 48.4382 22.4814 49.805C19.3951 52.8914 18.0226 57.2535 18.7169 61.4999H5.9425V56.8752L11.416 55.5116C11.6056 55.4644 11.7815 55.3733 11.9296 55.2458C12.0777 55.1183 12.1938 54.9578 12.2686 54.7772L14.8337 48.5872C14.9086 48.4067 14.94 48.211 14.9255 48.0161C14.911 47.8211 14.851 47.6323 14.7502 47.4647L11.8445 42.6309L15.3074 39.168L20.1414 42.0737C20.3089 42.1745 20.4977 42.2346 20.6927 42.2491C20.8876 42.2636 21.0833 42.2321 21.2639 42.1572L27.4538 39.5921C27.6343 39.5173 27.7948 39.4012 27.9223 39.2531C28.0499 39.1051 28.1409 38.9291 28.1881 38.7395L29.5518 33.266H34.448L35.8116 38.7395C35.8588 38.9291 35.9499 39.1051 36.0774 39.2531C36.205 39.4012 36.3655 39.5173 36.546 39.5921L42.7359 42.1572C42.9165 42.2322 43.1121 42.2636 43.3071 42.2491C43.502 42.2346 43.6909 42.1746 43.8584 42.0737L48.6924 39.168L52.1553 42.6309L49.2495 47.4647C49.1488 47.6323 49.0887 47.8211 49.0742 48.0161C49.0597 48.211 49.0911 48.4067 49.166 48.5872L51.7311 54.7772C51.8059 54.9578 51.9221 55.1183 52.0701 55.2458C52.2182 55.3733 52.3941 55.4644 52.5838 55.5116L58.0573 56.8752V61.5Z" fill="#1F7A42"/>
</g>
<defs>
<clipPath id="clip0_38277_230">
<rect width="64" height="64" fill="white"/>
</clipPath>
</defs>
</svg>
